# xmcd
#
# Track frame offsets: 
#        150
#        19822
#        36572
#        58490
#        74596
#        95609
#        128546
#        147621
#        160218
#        181666
#        183667
#        206389
#        227588
#        250513
#        271630
#
# Disc length: 3869 seconds
#
# Revision: 1
# Processed by: cddbd v1.5.2PL0 Copyright (c) Steve Scherf et al.
# Submitted via: ExactAudioCopy v1.3
#
DISCID=d70f1b0f
DTITLE=Sunshine - Neću da se predam
DYEAR=1998
DGENRE=Hip-Hop
TTITLE0=Um
TTITLE1=Zig Zigi
TTITLE2=Stranac
TTITLE3=Puši ga siso
TTITLE4=Iza horizonta
TTITLE5=Stanar
TTITLE6=Kurva IV
TTITLE7=Bongo Buda
TTITLE8=Mamino zlato
TTITLE9=?
TTITLE10=Rizla IV
TTITLE11=Slika i prilika
TTITLE12=Krug
TTITLE13=New era
TTITLE14=Brain damage
EXTD=
EXTT0=
EXTT1=
EXTT2=
EXTT3=
EXTT4=
EXTT5=
EXTT6=
EXTT7=
EXTT8=
EXTT9=
EXTT10=
EXTT11=
EXTT12=
EXTT13=
EXTT14=
PLAYORDER=
